<svg width="269" height="104" viewBox="0 0 269 104" fill="none" xmlns="http://www.w3.org/2000/svg">
<path d="M99.3684 57.9456C108.708 54.4879 118.464 56.3819 122.174 57.761C127.481 61.5173 130.258 69.989 131.605 72.7827C132.952 75.5764 132.963 82.1028 135.494 77.3878C138.025 72.6727 137.401 69.1796 134.901 64.2759C132.402 59.3722 126.76 57.6825 125.051 57.5057C127.983 56.1502 139.573 58.0127 143.13 60.1503C145.975 61.8603 146.446 61.0095 146.326 60.3703C146.095 58.9086 144.496 55.3589 139.95 52.8536C134.267 49.722 127.262 52.3152 126.442 52.6728C128.126 44.331 120.777 37.9302 118.373 37.9027C115.969 37.8752 116.802 39.5098 117.691 40.0442C118.58 40.5785 121.093 47.4744 121.037 48.5745C114.62 39.6158 106.976 41.2582 104.891 41.7061C102.806 42.154 101.013 43.6274 104.848 44.7984C108.684 45.9693 113.797 49.042 115.2 50.7355C111.17 48.8809 105.041 50.0164 102.08 51.9221C99.1197 53.8277 96.6167 57.9927 99.3684 57.9456Z" fill="#FF772B"/>
<path d="M19.152 10.376H28.272V5.144H3.504V10.376H12.72V12.824C12.72 20.36 9.12 28.472 1.728 31.784L5.328 36.824C10.512 34.472 14.064 29.624 16.032 23.864C18 29.192 21.504 33.512 26.64 35.72L30.096 30.728C22.704 27.656 19.152 20.024 19.152 12.824V10.376ZM32.352 0.919998V45.128H38.688V0.919998H32.352ZM54.3802 5.096H48.0442V34.28H51.8842C58.3163 34.28 65.4203 33.896 72.7643 32.36L72.1403 27.176C65.9483 28.376 59.9482 28.856 54.3802 29V5.096ZM87.5003 17.576H81.3083V0.871999H74.9723V45.032H81.3083V22.808H87.5003V17.576ZM3.984 60.552V65.592H17.808C17.088 70.68 12.144 75.096 1.824 77.016L4.08 82.152C17.424 79.464 24.864 72.36 24.864 60.552H3.984ZM14.016 94.92H36.864V82.68H7.68V87.672H30.624V90.216H7.728V102.696H38.16V97.704H14.016V94.92ZM36.864 67.704V58.872H30.528V80.952H36.864V72.888H42.72V67.704H36.864ZM69.4043 75.816H64.4603C65.5163 72.216 65.9003 68.328 65.9003 64.152H48.5722V69.192H59.6122C58.8442 77.832 54.9562 84.216 46.1242 89.496L49.7242 93.96C55.9643 90.312 59.9963 85.944 62.4922 80.904H69.4043V101.16H75.3083V59.88H69.4043V75.816ZM78.7163 58.872V103.08H84.7163V58.872H78.7163ZM106.456 84.408C107.992 84.696 109.576 84.84 111.305 84.84C113.033 84.84 114.665 84.696 116.201 84.408V92.856H106.456V84.408ZM111.305 66.072C117.448 66.072 121.577 68.568 121.577 72.984C121.577 77.352 117.448 79.896 111.305 79.896C105.161 79.896 101.08 77.352 101.08 72.984C101.08 68.568 105.161 66.072 111.305 66.072ZM122.489 92.856V82.056C125.801 79.992 127.817 76.824 127.817 72.984C127.817 65.736 120.857 61.08 111.305 61.08C101.8 61.08 94.8405 65.736 94.8405 72.984C94.7925 76.824 96.8085 79.992 100.168 82.056V92.856H91.3365V97.992H131.369V92.856H122.489Z" fill="black"/>
</svg>
