<svg width="25" height="25" viewBox="0 0 25 25" fill="none" xmlns="http://www.w3.org/2000/svg">
<path fill-rule="evenodd" clip-rule="evenodd" d="M17.5605 16.0471C18.9238 14.3556 19.7397 12.2051 19.7397 9.86409C19.7397 4.4163 15.3209 0 9.86987 0C4.41889 0 0 4.4163 0 9.86409C0 15.3119 4.41889 19.7282 9.86987 19.7282C12.2068 19.7282 14.354 18.9165 16.0446 17.5598L23.1713 24.6861C23.5895 25.1043 24.2677 25.1045 24.6861 24.6865C25.1045 24.2686 25.1047 23.5908 24.6865 23.1727L17.5605 16.0471ZM9.86987 17.8343C5.46545 17.8343 1.89496 14.2659 1.89496 9.86409C1.89496 5.46225 5.46545 1.89385 9.86987 1.89385C14.2743 1.89385 17.8448 5.46225 17.8448 9.86409C17.8448 14.2659 14.2743 17.8343 9.86987 17.8343Z" fill="#707070"/>
</svg>
