<svg width="211" height="75" viewBox="0 0 211 75" fill="none" xmlns="http://www.w3.org/2000/svg">
<path d="M15.561 35.118H22.971V30.867H2.847V35.118H10.335V37.107C10.335 43.23 7.41 49.821 1.404 52.512L4.329 56.607C8.541 54.696 11.427 50.757 13.026 46.077C14.625 50.406 17.472 53.916 21.645 55.71L24.453 51.654C18.447 49.158 15.561 42.957 15.561 37.107V35.118ZM26.286 27.435V63.354H31.434V27.435H26.286ZM44.184 30.828H39.036V54.54H42.156C47.382 54.54 53.154 54.228 59.121 52.98L58.614 48.768C53.583 49.743 48.708 50.133 44.184 50.25V30.828ZM71.094 40.968H66.063V27.396H60.915V63.276H66.063V45.219H71.094V40.968ZM75.7709 28.761V32.856H87.0029C86.4179 36.99 82.4009 40.578 74.0159 42.138L75.8489 46.311C86.6909 44.127 92.7359 38.355 92.7359 28.761H75.7709ZM83.9219 56.685H102.486V46.74H78.7739V50.796H97.4159V52.863H78.8129V63.003H103.539V58.947H83.9219V56.685ZM102.486 34.572V27.396H97.3379V45.336H102.486V38.784H107.244V34.572H102.486ZM128.925 41.163H124.908C125.766 38.238 126.078 35.079 126.078 31.686H111.999V35.781H120.969C120.345 42.801 117.186 47.988 110.01 52.278L112.935 55.905C118.005 52.941 121.281 49.392 123.309 45.297H128.925V61.755H133.722V28.215H128.925V41.163ZM136.491 27.396V63.315H141.366V27.396H136.491ZM159.03 48.144C160.278 48.378 161.565 48.495 162.969 48.495C164.373 48.495 165.699 48.378 166.947 48.144V55.008H159.03V48.144ZM162.969 33.246C167.961 33.246 171.315 35.274 171.315 38.862C171.315 42.411 167.961 44.478 162.969 44.478C157.977 44.478 154.662 42.411 154.662 38.862C154.662 35.274 157.977 33.246 162.969 33.246ZM172.056 55.008V46.233C174.747 44.556 176.385 41.982 176.385 38.862C176.385 32.973 170.73 29.19 162.969 29.19C155.247 29.19 149.592 32.973 149.592 38.862C149.553 41.982 151.191 44.556 153.921 46.233V55.008H146.745V59.181H179.271V55.008H172.056Z" fill="black"/>
<path d="M152.099 28.0962C162.214 24.3519 172.777 26.4029 176.795 27.8964C182.542 31.9641 185.549 41.1379 187.008 44.1632C188.467 47.1885 188.479 54.2559 191.22 49.15C193.961 44.0441 193.285 40.2615 190.578 34.9513C187.871 29.6411 181.761 27.8114 179.91 27.6199C183.086 26.152 195.636 28.1689 199.488 30.4837C202.57 32.3354 203.08 31.4141 202.95 30.722C202.699 29.1391 200.968 25.2952 196.045 22.5822C189.891 19.191 182.305 21.9992 181.417 22.3864C183.241 13.3532 175.282 6.4218 172.679 6.392C170.075 6.3622 170.978 8.13226 171.941 8.71094C172.904 9.28962 175.625 16.7571 175.564 17.9484C168.615 8.2471 160.337 10.0256 158.08 10.5106C155.822 10.9957 153.88 12.5912 158.034 13.8592C162.187 15.1272 167.724 18.4546 169.243 20.2885C164.879 18.2802 158.242 19.5098 155.036 21.5734C151.83 23.637 149.12 28.1472 152.099 28.0962Z" fill="#FF772B"/>
</svg>
